<?xml version="1.0" encoding="UTF-8" standalone="no"?>
<!-- Created with Inkscape (http://www.inkscape.org/) -->

<svg
   width="101.71383mm"
   height="83.04364mm"
   viewBox="0 0 101.71383 83.04364"
   version="1.1"
   id="svg1"
   xml:space="preserve"
   inkscape:version="1.4 (86a8ad7, 2024-10-11)"
   sodipodi:docname="heart.svg"
   xmlns:inkscape="http://www.inkscape.org/namespaces/inkscape"
   xmlns:sodipodi="http://sodipodi.sourceforge.net/DTD/sodipodi-0.dtd"
   xmlns="http://www.w3.org/2000/svg"
   xmlns:svg="http://www.w3.org/2000/svg"><sodipodi:namedview
     id="namedview1"
     pagecolor="#ffffff"
     bordercolor="#000000"
     borderopacity="0.25"
     inkscape:showpageshadow="2"
     inkscape:pageopacity="0.0"
     inkscape:pagecheckerboard="0"
     inkscape:deskcolor="#d1d1d1"
     inkscape:document-units="mm"
     inkscape:zoom="0.70710678"
     inkscape:cx="284.96403"
     inkscape:cy="457.49809"
     inkscape:window-width="1920"
     inkscape:window-height="1009"
     inkscape:window-x="-8"
     inkscape:window-y="-8"
     inkscape:window-maximized="1"
     inkscape:current-layer="layer1"><inkscape:page
       x="-8.2691761e-14"
       y="0"
       width="101.71384"
       height="83.04364"
       id="page2"
       margin="0"
       bleed="0" /></sodipodi:namedview><defs
     id="defs1" /><g
     inkscape:label="Katman 1"
     inkscape:groupmode="layer"
     id="layer1"
     transform="translate(-50.205842,-49.222595)"><path
       style="fill:#ff0000;stroke-width:0.374176"
       d="M 96.350663,129.96915 C 76.275299,119.27804 60.3961,104.98886 54.317092,92.144487 c -5.072063,-10.7168 -5.477365,-22.37248 -1.069634,-30.76041 2.761165,-5.25451 7.870243,-9.54756 13.444892,-11.29747 2.708526,-0.85022 3.547758,-0.94701 6.92228,-0.79834 2.755239,0.12139 4.443373,0.4036 5.975607,0.99896 5.417698,2.1051 12.682088,8.35943 17.991706,15.49011 1.94407,2.61084 3.215987,3.9978 3.598607,3.92411 0.32549,-0.0627 1.97595,-1.95357 3.66771,-4.20199 3.58747,-4.7679 6.73948,-8.06079 10.39836,-10.8631 2.98411,-2.28551 7.14577,-4.4734 9.57337,-5.03297 2.53944,-0.58534 7.7941,-0.47921 10.09657,0.20393 7.30188,2.16646 13.28323,8.07649 15.86287,15.67372 1.71638,5.05485 1.46417,14.64872 -0.54824,20.85562 -2.55053,7.86662 -6.71714,14.127023 -14.77009,22.192283 -6.15958,6.16901 -12.64388,11.29508 -20.51394,16.217 -4.45438,2.78577 -13.28173,7.53273 -13.98451,7.52027 -0.16993,-0.003 -2.245317,-1.03669 -4.611987,-2.29706 z"
       id="path2" /></g></svg>
