<?xml version="1.0" encoding="UTF-8" standalone="no"?>
<!-- Created with Inkscape (http://www.inkscape.org/) -->

<svg
   width="7.7762699mm"
   height="19.40967mm"
   viewBox="0 0 7.7762699 19.40967"
   version="1.1"
   id="svg1"
   xmlns="http://www.w3.org/2000/svg"
   xmlns:svg="http://www.w3.org/2000/svg">
  <defs
     id="defs1" />
  <g
     id="layer1"
     transform="translate(-99.68354,-135.1716)">
    <path
       d="m 107.45981,153.20461 q 0,0.60771 -0.39688,0.99219 -0.39687,0.38447 -1.00459,0.38447 h -4.99814 q -0.60771,0 -0.99219,-0.38447 -0.38447,-0.38448 -0.38447,-0.99219 v -16.65635 q 0,-0.60771 0.38447,-0.99219 0.38448,-0.38447 0.99219,-0.38447 h 4.99814 q 0.60772,0 1.00459,0.38447 0.39688,0.38448 0.39688,0.99219 v 4.51445 h -1.73633 v -4.36562 h -4.31601 v 16.35869 h 4.31601 v -4.7749 h 1.73633 z"
       id="text8"
       style="font-stretch:condensed;font-size:25.4px;font-family:'Agency FB';-inkscape-font-specification:'Agency FB Condensed';stroke-width:0.264583"
       aria-label="C" />
    <path
       style="fill:none;stroke-width:0.122946"
       d="M 3.96516,73.151022 C 2.9321978,72.926628 2.0589182,72.429913 1.3829992,71.682306 0.62526596,70.844209 0.26205137,70.006387 0.11969952,68.768272 -0.0413612,67.367437 -0.03919827,6.0127444 0.12196125,4.6108354 0.20643011,3.87605 0.35268724,3.341418 0.61499006,2.8086052 1.0939354,1.8357291 2.1922414,0.80126101 3.1616156,0.40999973 L 3.8728083,0.1229463 14.256741,0.08882993 c 7.156049,-0.02351117 10.584976,0.00762 11.030677,0.10014726 1.526988,0.31700157 2.940738,1.41060861 3.553327,2.74868001 0.165003,0.3604139 0.353066,1.0640515 0.417916,1.5636389 0.06487,0.4997127 0.119619,4.6831732 0.121707,9.2994259 l 0.0038,8.391084 h -3.25808 -3.258077 V 13.954405 5.7170028 H 14.692082 6.5161537 V 36.699469 67.681936 h 8.1759283 8.175929 V 58.645383 49.60883 h 3.258077 3.258077 l -0.0038,9.190236 c -0.0021,5.05463 -0.05593,9.591647 -0.119657,10.08226 -0.294321,2.265977 -1.956394,3.959751 -4.255025,4.336184 -0.424945,0.06959 -4.759496,0.114789 -10.498023,0.109469 -7.7457636,-0.0072 -9.9336718,-0.0437 -10.542503,-0.175957 z"
       id="path2"
       transform="matrix(0.26458333,0,0,0.26458333,99.68354,135.1716)" />
    <path
       style="fill:none;stroke-width:0.122946"
       d="M 3.96516,73.151022 C 2.9321978,72.926628 2.0589182,72.429913 1.3829992,71.682306 0.62526596,70.844209 0.26205137,70.006387 0.11969952,68.768272 -0.0413612,67.367437 -0.03919827,6.0127444 0.12196125,4.6108354 0.20643011,3.87605 0.35268724,3.341418 0.61499006,2.8086052 1.0939354,1.8357291 2.1922414,0.80126101 3.1616156,0.40999973 L 3.8728083,0.1229463 14.256741,0.08882993 c 7.156049,-0.02351117 10.584976,0.00762 11.030677,0.10014726 1.526988,0.31700157 2.940738,1.41060861 3.553327,2.74868001 0.165003,0.3604139 0.353066,1.0640515 0.417916,1.5636389 0.06487,0.4997127 0.119619,4.6831732 0.121707,9.2994259 l 0.0038,8.391084 h -3.25808 -3.258077 V 13.954405 5.7170028 H 14.692082 6.5161537 V 36.699469 67.681936 h 8.1759283 8.175929 V 58.645383 49.60883 h 3.258077 3.258077 l -0.0038,9.190236 c -0.0021,5.05463 -0.05593,9.591647 -0.119657,10.08226 -0.294321,2.265977 -1.956394,3.959751 -4.255025,4.336184 -0.424945,0.06959 -4.759496,0.114789 -10.498023,0.109469 -7.7457636,-0.0072 -9.9336718,-0.0437 -10.542503,-0.175957 z"
       id="path3"
       transform="matrix(0.26458333,0,0,0.26458333,99.68354,135.1716)" />
    <path
       style="fill:none;stroke-width:0.122946"
       d="M 3.96516,73.151022 C 2.9321978,72.926628 2.0589182,72.429913 1.3829992,71.682306 0.62526596,70.844209 0.26205137,70.006387 0.11969952,68.768272 -0.0413612,67.367437 -0.03919827,6.0127444 0.12196125,4.6108354 0.20643011,3.87605 0.35268724,3.341418 0.61499006,2.8086052 1.0939354,1.8357291 2.1922414,0.80126101 3.1616156,0.40999973 L 3.8728083,0.1229463 14.256741,0.08882993 c 7.156049,-0.02351117 10.584976,0.00762 11.030677,0.10014726 1.526988,0.31700157 2.940738,1.41060861 3.553327,2.74868001 0.165003,0.3604139 0.353066,1.0640515 0.417916,1.5636389 0.06487,0.4997127 0.119619,4.6831732 0.121707,9.2994259 l 0.0038,8.391084 h -3.25808 -3.258077 V 13.954405 5.7170028 H 14.692082 6.5161537 V 36.699469 67.681936 h 8.1759283 8.175929 V 58.645383 49.60883 h 3.258077 3.258077 l -0.0038,9.190236 c -0.0021,5.05463 -0.05593,9.591647 -0.119657,10.08226 -0.294321,2.265977 -1.956394,3.959751 -4.255025,4.336184 -0.424945,0.06959 -4.759496,0.114789 -10.498023,0.109469 -7.7457636,-0.0072 -9.9336718,-0.0437 -10.542503,-0.175957 z"
       id="path4"
       transform="matrix(0.26458333,0,0,0.26458333,99.68354,135.1716)" />
    <path
       style="fill:none;stroke-width:0.122946"
       d="M 3.96516,73.151022 C 2.9321978,72.926628 2.0589182,72.429913 1.3829992,71.682306 0.62526596,70.844209 0.26205137,70.006387 0.11969952,68.768272 -0.0413612,67.367437 -0.03919827,6.0127444 0.12196125,4.6108354 0.20643011,3.87605 0.35268724,3.341418 0.61499006,2.8086052 1.0939354,1.8357291 2.1922414,0.80126101 3.1616156,0.40999973 L 3.8728083,0.1229463 14.256741,0.08882993 c 7.156049,-0.02351117 10.584976,0.00762 11.030677,0.10014726 1.526988,0.31700157 2.940738,1.41060861 3.553327,2.74868001 0.165003,0.3604139 0.353066,1.0640515 0.417916,1.5636389 0.06487,0.4997127 0.119619,4.6831732 0.121707,9.2994259 l 0.0038,8.391084 h -3.25808 -3.258077 V 13.954405 5.7170028 H 14.692082 6.5161537 V 36.699469 67.681936 h 8.1759283 8.175929 V 58.645383 49.60883 h 3.258077 3.258077 l -0.0038,9.190236 c -0.0021,5.05463 -0.05593,9.591647 -0.119657,10.08226 -0.294321,2.265977 -1.956394,3.959751 -4.255025,4.336184 -0.424945,0.06959 -4.759496,0.114789 -10.498023,0.109469 -7.7457636,-0.0072 -9.9336718,-0.0437 -10.542503,-0.175957 z"
       id="path5"
       transform="matrix(0.26458333,0,0,0.26458333,99.68354,135.1716)" />
  </g>
</svg>
