<?xml version="1.0" encoding="UTF-8" standalone="no"?>
<!-- Created with Inkscape (http://www.inkscape.org/) -->

<svg
   width="7.7762718mm"
   height="19.409666mm"
   viewBox="0 0 7.7762718 19.409666"
   version="1.1"
   id="svg1"
   inkscape:version="1.4 (86a8ad7, 2024-10-11)"
   sodipodi:docname="C.svg"
   inkscape:export-filename="C.svg"
   inkscape:export-xdpi="96"
   inkscape:export-ydpi="96"
   xmlns:inkscape="http://www.inkscape.org/namespaces/inkscape"
   xmlns:sodipodi="http://sodipodi.sourceforge.net/DTD/sodipodi-0.dtd"
   xmlns="http://www.w3.org/2000/svg"
   xmlns:svg="http://www.w3.org/2000/svg">
  <sodipodi:namedview
     id="namedview1"
     pagecolor="#ffffff"
     bordercolor="#000000"
     borderopacity="0.25"
     inkscape:showpageshadow="2"
     inkscape:pageopacity="0.0"
     inkscape:pagecheckerboard="0"
     inkscape:deskcolor="#d1d1d1"
     inkscape:document-units="mm"
     inkscape:zoom="8.1336326"
     inkscape:cx="23.482742"
     inkscape:cy="34.36349"
     inkscape:window-width="1920"
     inkscape:window-height="1009"
     inkscape:window-x="-8"
     inkscape:window-y="-8"
     inkscape:window-maximized="1"
     inkscape:current-layer="layer1">
    <inkscape:page
       x="-1.8329159e-23"
       y="0"
       width="7.7762713"
       height="19.409666"
       id="page2"
       margin="0"
       bleed="0" />
  </sodipodi:namedview>
  <defs
     id="defs1" />
  <g
     inkscape:label="Katman 1"
     inkscape:groupmode="layer"
     id="layer1"
     transform="translate(-99.683538,-135.1716)">
    <text
       xml:space="preserve"
       style="font-style:normal;font-variant:normal;font-weight:normal;font-stretch:condensed;font-size:25.4px;font-family:'Agency FB';-inkscape-font-specification:'Agency FB Condensed';text-align:start;writing-mode:lr-tb;direction:ltr;text-anchor:start;fill:#000000;stroke-width:0.264583"
       x="98.133247"
       y="154.58127"
       id="text8"
       inkscape:export-filename="O.svg"
       inkscape:export-xdpi="96"
       inkscape:export-ydpi="96"><tspan
         sodipodi:role="line"
         id="tspan8"
         style="font-style:normal;font-variant:normal;font-weight:normal;font-stretch:condensed;font-size:25.4px;font-family:'Agency FB';-inkscape-font-specification:'Agency FB Condensed';stroke-width:0.264583"
         x="98.133247"
         y="154.58127">C</tspan></text>
    <path
       style="fill:none;stroke-width:0.122946"
       d="M 3.96516,73.151022 C 2.9321978,72.926628 2.0589182,72.429913 1.3829992,71.682306 0.62526596,70.844209 0.26205137,70.006387 0.11969952,68.768272 -0.0413612,67.367437 -0.03919827,6.0127444 0.12196125,4.6108354 0.20643011,3.87605 0.35268724,3.341418 0.61499006,2.8086052 1.0939354,1.8357291 2.1922414,0.80126101 3.1616156,0.40999973 L 3.8728083,0.1229463 14.256741,0.08882993 c 7.156049,-0.02351117 10.584976,0.00762 11.030677,0.10014726 1.526988,0.31700157 2.940738,1.41060861 3.553327,2.74868001 0.165003,0.3604139 0.353066,1.0640515 0.417916,1.5636389 0.06487,0.4997127 0.119619,4.6831732 0.121707,9.2994259 l 0.0038,8.391084 h -3.25808 -3.258077 V 13.954405 5.7170028 H 14.692082 6.5161537 V 36.699469 67.681936 h 8.1759283 8.175929 V 58.645383 49.60883 h 3.258077 3.258077 l -0.0038,9.190236 c -0.0021,5.05463 -0.05593,9.591647 -0.119657,10.08226 -0.294321,2.265977 -1.956394,3.959751 -4.255025,4.336184 -0.424945,0.06959 -4.759496,0.114789 -10.498023,0.109469 -7.7457636,-0.0072 -9.9336718,-0.0437 -10.542503,-0.175957 z"
       id="path2"
       transform="matrix(0.26458333,0,0,0.26458333,99.68354,135.1716)" />
    <path
       style="fill:none;stroke-width:0.122946"
       d="M 3.96516,73.151022 C 2.9321978,72.926628 2.0589182,72.429913 1.3829992,71.682306 0.62526596,70.844209 0.26205137,70.006387 0.11969952,68.768272 -0.0413612,67.367437 -0.03919827,6.0127444 0.12196125,4.6108354 0.20643011,3.87605 0.35268724,3.341418 0.61499006,2.8086052 1.0939354,1.8357291 2.1922414,0.80126101 3.1616156,0.40999973 L 3.8728083,0.1229463 14.256741,0.08882993 c 7.156049,-0.02351117 10.584976,0.00762 11.030677,0.10014726 1.526988,0.31700157 2.940738,1.41060861 3.553327,2.74868001 0.165003,0.3604139 0.353066,1.0640515 0.417916,1.5636389 0.06487,0.4997127 0.119619,4.6831732 0.121707,9.2994259 l 0.0038,8.391084 h -3.25808 -3.258077 V 13.954405 5.7170028 H 14.692082 6.5161537 V 36.699469 67.681936 h 8.1759283 8.175929 V 58.645383 49.60883 h 3.258077 3.258077 l -0.0038,9.190236 c -0.0021,5.05463 -0.05593,9.591647 -0.119657,10.08226 -0.294321,2.265977 -1.956394,3.959751 -4.255025,4.336184 -0.424945,0.06959 -4.759496,0.114789 -10.498023,0.109469 -7.7457636,-0.0072 -9.9336718,-0.0437 -10.542503,-0.175957 z"
       id="path3"
       transform="matrix(0.26458333,0,0,0.26458333,99.68354,135.1716)" />
    <path
       style="fill:none;stroke-width:0.122946"
       d="M 3.96516,73.151022 C 2.9321978,72.926628 2.0589182,72.429913 1.3829992,71.682306 0.62526596,70.844209 0.26205137,70.006387 0.11969952,68.768272 -0.0413612,67.367437 -0.03919827,6.0127444 0.12196125,4.6108354 0.20643011,3.87605 0.35268724,3.341418 0.61499006,2.8086052 1.0939354,1.8357291 2.1922414,0.80126101 3.1616156,0.40999973 L 3.8728083,0.1229463 14.256741,0.08882993 c 7.156049,-0.02351117 10.584976,0.00762 11.030677,0.10014726 1.526988,0.31700157 2.940738,1.41060861 3.553327,2.74868001 0.165003,0.3604139 0.353066,1.0640515 0.417916,1.5636389 0.06487,0.4997127 0.119619,4.6831732 0.121707,9.2994259 l 0.0038,8.391084 h -3.25808 -3.258077 V 13.954405 5.7170028 H 14.692082 6.5161537 V 36.699469 67.681936 h 8.1759283 8.175929 V 58.645383 49.60883 h 3.258077 3.258077 l -0.0038,9.190236 c -0.0021,5.05463 -0.05593,9.591647 -0.119657,10.08226 -0.294321,2.265977 -1.956394,3.959751 -4.255025,4.336184 -0.424945,0.06959 -4.759496,0.114789 -10.498023,0.109469 -7.7457636,-0.0072 -9.9336718,-0.0437 -10.542503,-0.175957 z"
       id="path4"
       transform="matrix(0.26458333,0,0,0.26458333,99.68354,135.1716)" />
    <path
       style="fill:none;stroke-width:0.122946"
       d="M 3.96516,73.151022 C 2.9321978,72.926628 2.0589182,72.429913 1.3829992,71.682306 0.62526596,70.844209 0.26205137,70.006387 0.11969952,68.768272 -0.0413612,67.367437 -0.03919827,6.0127444 0.12196125,4.6108354 0.20643011,3.87605 0.35268724,3.341418 0.61499006,2.8086052 1.0939354,1.8357291 2.1922414,0.80126101 3.1616156,0.40999973 L 3.8728083,0.1229463 14.256741,0.08882993 c 7.156049,-0.02351117 10.584976,0.00762 11.030677,0.10014726 1.526988,0.31700157 2.940738,1.41060861 3.553327,2.74868001 0.165003,0.3604139 0.353066,1.0640515 0.417916,1.5636389 0.06487,0.4997127 0.119619,4.6831732 0.121707,9.2994259 l 0.0038,8.391084 h -3.25808 -3.258077 V 13.954405 5.7170028 H 14.692082 6.5161537 V 36.699469 67.681936 h 8.1759283 8.175929 V 58.645383 49.60883 h 3.258077 3.258077 l -0.0038,9.190236 c -0.0021,5.05463 -0.05593,9.591647 -0.119657,10.08226 -0.294321,2.265977 -1.956394,3.959751 -4.255025,4.336184 -0.424945,0.06959 -4.759496,0.114789 -10.498023,0.109469 -7.7457636,-0.0072 -9.9336718,-0.0437 -10.542503,-0.175957 z"
       id="path5"
       transform="matrix(0.26458333,0,0,0.26458333,99.68354,135.1716)" />
  </g>
</svg>
