<?xml version="1.0" encoding="UTF-8" standalone="no"?>
<!-- Created with Inkscape (http://www.inkscape.org/) -->

<svg
   width="7.6398439mm"
   height="19.409668mm"
   viewBox="0 0 7.6398439 19.409668"
   version="1.1"
   id="svg1"
   xmlns="http://www.w3.org/2000/svg"
   xmlns:svg="http://www.w3.org/2000/svg">
  <defs
     id="defs1" />
  <g
     id="layer1"
     transform="translate(-99.609126,-135.1716)">
    <path
       d="m 107.24897,153.20461 q 0,0.60771 -0.38447,0.99219 -0.37207,0.38447 -0.97979,0.38447 h -4.88652 q -0.60772,0 -1.004591,-0.38447 -0.384473,-0.38448 -0.384473,-0.99219 v -4.92373 h 1.723924 v 4.7749 h 4.19199 v -4.62607 l -5.35781,-6.47403 q -0.558104,-0.66972 -0.558104,-1.47588 v -3.93154 q 0,-0.60771 0.384473,-0.99219 0.396871,-0.38447 1.004591,-0.38447 h 4.88652 q 0.60772,0 0.97979,0.38447 0.38447,0.38448 0.38447,0.99219 v 4.51445 h -1.72393 v -4.36562 h -4.19199 v 4.09277 l 5.38262,6.47403 q 0.5333,0.64492 0.5333,1.45107 z"
       id="text8"
       style="font-stretch:condensed;font-size:25.4px;font-family:'Agency FB';-inkscape-font-specification:'Agency FB Condensed';stroke-width:0.264583"
       aria-label="S" />
  </g>
</svg>
